Coordinates
version=1
nRows=14
nColumns=24
inDegrees=yes

Units are S.I. units (second, meters, Newtons, ...)
Angles are in degrees.

endheader
time	pelvis_tilt	pelvis_list	pelvis_rotation	pelvis_tx	pelvis_ty	pelvis_tz	hip_flexion_r	hip_adduction_r	hip_rotation_r	knee_angle_r	ankle_angle_r	subtalar_angle_r	mtp_angle_r	hip_flexion_l	hip_adduction_l	hip_rotation_l	knee_angle_l	ankle_angle_l	subtalar_angle_l	mtp_angle_l	lumbar_extension	lumbar_bending	lumbar_rotation
      0.69600000	      0.44872320	     -0.73835534	     -3.44066138	     -0.50894084	      1.06405299	      0.31976368	     12.90205068	      5.48168107	     -3.66485860	    -16.68439131	      4.36617148	     -2.53601324	      3.38466274	     17.05666452	     -1.88103272	     -1.87898780	    -68.84850264	      6.67065006	     -1.24383230	      7.55471700	      2.87737023	      4.72627115	      2.18110413
      0.70016667	      0.48237511	     -0.68802517	     -3.53851915	     -0.50381595	      1.06489310	      0.32008607	     12.49425375	      5.44163378	     -3.56576991	    -16.55557272	      4.51004682	     -2.46414781	      3.41891335	     17.65749961	     -1.81678546	     -1.76827246	    -68.70354390	      7.07823476	     -1.78936068	      7.54211280	      2.80782221	      4.65733509	      2.30498216
      0.70433333	      0.51003621	     -0.66340367	     -3.60600975	     -0.49867917	      1.06571419	      0.32050163	     12.07140599	      5.44113034	     -3.42881805	    -16.37682608	      4.61177356	     -2.40698969	      3.43997562	     18.25313561	     -1.79117743	     -1.63944471	    -68.48560482	      7.38740054	     -2.17675972	      7.53185491	      2.75112131	      4.56217369	      2.39368004
      0.70850000	      0.54294577	     -0.56908196	     -3.73084513	     -0.49354284	      1.06654345	      0.32069033	     11.67173009	      5.34098214	     -3.34699363	    -16.26176140	      4.75640845	     -2.37613902	      3.47401287	     18.80773038	     -1.66649638	     -1.57446295	    -68.15615954	      7.78978073	     -2.76022149	      7.50866739	      2.68365339	      4.51410843	      2.52261493
      0.71266667	      0.56965665	     -0.51627613	     -3.81521595	     -0.48839032	      1.06734076	      0.32097312	     11.25315405	      5.29759655	     -3.21834709	    -16.09304664	      4.86546737	     -2.34518770	      3.50830127	     19.35761033	     -1.59732786	     -1.47871911	    -67.76153756	      8.06594443	     -3.22827621	      7.47939984	      2.62825722	      4.44266998	      2.65222589
      0.71683333	      0.60317855	     -0.48231423	     -3.86407785	     -0.48324254	      1.06811489	      0.32130556	     10.81190484	      5.28106963	     -3.07102299	    -15.88600472	      4.94167728	     -2.33222356	      3.52749926	     19.88751374	     -1.55074426	     -1.35411831	    -67.29576677	      8.28770848	     -3.52579747	      7.46053084	      2.58965979	      4.35040801	      2.73218920
      0.72100000	      0.63201977	     -0.42071126	     -3.93735879	     -0.47809801	      1.06885980	      0.32155343	     10.38628340	      5.22833982	     -2.93514853	    -15.69824165	      5.03492211	     -2.36686547	      3.54816906	     20.39568171	     -1.46707719	     -1.26491801	    -66.74444654	      8.56859345	     -3.91274651	      7.43583654	      2.55118248	      4.27039941	      2.81703432
      0.72516667	      0.62719446	     -0.36184482	     -3.99560515	     -0.47297248	      1.06951705	      0.32164282	     10.00214576	      5.16545078	     -2.81480282	    -15.52796845	      5.07725772	     -2.38614655	      3.55562385	     20.92406048	     -1.36987335	     -1.14244496	    -66.11540225	      8.68686293	     -4.05912018	      7.42473251	      2.46788145	      4.26007484	      2.84238113
      0.72933333	      0.68319232	     -0.30727190	     -4.11255964	     -0.46784520	      1.07025185	      0.32202622	      9.53966819	      5.13927853	     -2.57627628	    -15.31902210	      5.16998227	     -2.54269657	      3.60491714	     21.34934273	     -1.32156088	     -1.14230144	    -65.40214946	      8.87308422	     -4.76885620	      7.34096244	      2.35579878	      4.14671172	      3.03471686
      0.73350000	      0.70811549	     -0.26839563	     -4.14154997	     -0.46258269	      1.07092895	      0.32216044	      9.08907634	      5.10535609	     -2.45429159	    -15.08402591	      5.21996268	     -2.59758789	      3.61886849	     21.78587733	     -1.24734409	     -1.02491356	    -64.61128927	      9.01456718	     -4.94783851	      7.31572138	      2.39155630	      4.10441973	      3.08966332
      0.73766667	      0.72912885	     -0.22636524	     -4.19077618	     -0.45737747	      1.07154458	      0.32234952	      8.64730016	      5.07754997	     -2.27013493	    -14.85231312	      5.28393436	     -2.72474571	      3.63624015	     22.20640652	     -1.18090002	     -0.94404038	    -63.75452301	      9.18425304	     -5.25850652	      7.27781234	      2.37719860	      4.03226975	      3.15323455
      0.74183333	      0.73305267	     -0.19270970	     -4.24403906	     -0.45217394	      1.07209500	      0.32250705	      8.22324506	      5.05936804	     -2.07075789	    -14.62087502	      5.33204924	     -2.87973128	      3.65213180	     22.62100705	     -1.12506478	     -0.87062133	    -62.82580997	      9.28749277	     -5.55965439	      7.23607628	      2.36340797	      3.99504796	      3.20963429
      0.74600000	      0.74502908	     -0.16254179	     -4.29507269	     -0.44697205	      1.07261446	      0.32265723	      7.78577002	      5.04715896	     -1.85368512	    -14.37877088	      5.37313827	     -3.08419669	      3.66826079	     23.00145317	     -1.07189358	     -0.80474743	    -61.82104372	      9.35777279	     -5.89322876	      7.18621933	      2.34860480	      3.95183595	      3.26950248
      0.75016667	      0.73777619	     -0.13970527	     -4.33394951	     -0.44173349	      1.07306911	      0.32277518	      7.36253653	      5.04244754	     -1.64295041	    -14.12799267	      5.40587785	     -3.28708889	      3.68187538	     23.37606770	     -1.02457428	     -0.73605672	    -60.74703485	      9.39854619	     -6.19474339	      7.13721886	      2.34240590	      3.93140405	      3.32061338
